<svg width="20" height="20" viewBox="0 0 20 20" fill="none" xmlns="http://www.w3.org/2000/svg">
<path d="M15 8H15.8C16.6487 8 17.4626 8.31607 18.0627 8.87868C18.6629 9.44129 19 10.2044 19 11C19 11.7956 18.6629 12.5587 18.0627 13.1213C17.4626 13.6839 16.6487 14 15.8 14H15" stroke="#693F93" stroke-width="2" stroke-linecap="round" stroke-linejoin="round"/>
<path d="M1.66675 6.66669H15.0001V14.1667C15.0001 15.0507 14.6489 15.8986 14.0238 16.5237C13.3986 17.1488 12.5508 17.5 11.6667 17.5H5.00008C4.11603 17.5 3.26818 17.1488 2.64306 16.5237C2.01794 15.8986 1.66675 15.0507 1.66675 14.1667V6.66669Z" stroke="#693F93" stroke-width="2" stroke-linecap="round" stroke-linejoin="round"/>
<path d="M12 1V3" stroke="#693F93" stroke-width="2" stroke-linecap="round" stroke-linejoin="round"/>
<path d="M8 1V3" stroke="#693F93" stroke-width="2" stroke-linecap="round" stroke-linejoin="round"/>
<path d="M4 1V3" stroke="#693F93" stroke-width="2" stroke-linecap="round" stroke-linejoin="round"/>
</svg>
