<svg width="20" height="20" viewBox="0 0 20 20" fill="none" xmlns="http://www.w3.org/2000/svg">
<path d="M17.6416 1.71669C17.0442 1.6138 16.4394 1.56084 15.8332 1.55835C13.7652 1.55666 11.7403 2.14966 9.99991 3.26669C8.25503 2.16433 6.23045 1.58588 4.16657 1.60002C3.56045 1.6025 2.95558 1.65546 2.35824 1.75835C2.16258 1.79209 1.98539 1.89457 1.85859 2.04735C1.73178 2.20013 1.66369 2.39316 1.66657 2.59169V12.5917C1.66479 12.7141 1.69001 12.8355 1.74045 12.9471C1.79089 13.0586 1.8653 13.1577 1.95839 13.2373C2.05147 13.3169 2.16096 13.3749 2.27904 13.4074C2.39712 13.4398 2.5209 13.4458 2.64157 13.425C3.83576 13.2183 5.05924 13.2526 6.23996 13.5259C7.42068 13.7993 8.53476 14.3061 9.51657 15.0167L9.61657 15.075H9.70824C9.80066 15.1135 9.89979 15.1334 9.99991 15.1334C10.1 15.1334 10.1992 15.1135 10.2916 15.075H10.3832L10.4832 15.0167C11.4582 14.2903 12.5691 13.767 13.75 13.4778C14.931 13.1887 16.158 13.1395 17.3582 13.3334C17.4789 13.3542 17.6027 13.3482 17.7208 13.3157C17.8389 13.2833 17.9483 13.2252 18.0414 13.1456C18.1345 13.0661 18.2089 12.967 18.2594 12.8554C18.3098 12.7438 18.335 12.6225 18.3332 12.5V2.50002C18.3246 2.31015 18.2513 2.12895 18.1254 1.98647C17.9996 1.84399 17.8289 1.7488 17.6416 1.71669ZM9.16657 12.7917C7.62481 11.9806 5.90867 11.5573 4.16657 11.5584C3.89157 11.5584 3.61657 11.5584 3.33324 11.5584V3.22502C3.61079 3.20902 3.88903 3.20902 4.16657 3.22502C5.9444 3.22305 7.68342 3.74476 9.16657 4.72502V12.7917ZM16.6666 11.5917C16.3832 11.5917 16.1082 11.5917 15.8332 11.5917C14.0911 11.5906 12.375 12.0139 10.8332 12.825V4.72502C12.3164 3.74476 14.0554 3.22305 15.8332 3.22502C16.1108 3.20902 16.389 3.20902 16.6666 3.22502V11.5917ZM17.6416 15.05C17.0442 14.9471 16.4394 14.8942 15.8332 14.8917C13.7652 14.89 11.7403 15.483 9.99991 16.6C8.2595 15.483 6.2346 14.89 4.16657 14.8917C3.56045 14.8942 2.95558 14.9471 2.35824 15.05C2.24976 15.0672 2.14576 15.1057 2.05221 15.1633C1.95866 15.2208 1.87741 15.2963 1.81313 15.3854C1.74885 15.4744 1.70281 15.5753 1.67766 15.6822C1.65251 15.7891 1.64874 15.9 1.66657 16.0084C1.70892 16.2248 1.83532 16.4156 2.01807 16.5389C2.20082 16.6623 2.42502 16.7083 2.64157 16.6667C3.83576 16.4599 5.05924 16.4942 6.23996 16.7676C7.42068 17.0409 8.53476 17.5478 9.51657 18.2584C9.65771 18.3588 9.82666 18.4128 9.99991 18.4128C10.1732 18.4128 10.3421 18.3588 10.4832 18.2584C11.4651 17.5478 12.5791 17.0409 13.7599 16.7676C14.9406 16.4942 16.1641 16.4599 17.3582 16.6667C17.5748 16.7083 17.799 16.6623 17.9817 16.5389C18.1645 16.4156 18.2909 16.2248 18.3332 16.0084C18.3511 15.9 18.3473 15.7891 18.3222 15.6822C18.297 15.5753 18.251 15.4744 18.1867 15.3854C18.1224 15.2963 18.0412 15.2208 17.9476 15.1633C17.8541 15.1057 17.7501 15.0672 17.6416 15.05Z" fill="#693F93"/>
</svg>
