<svg width="260" height="61" viewBox="0 0 260 61" fill="none" xmlns="http://www.w3.org/2000/svg">
<path d="M201.672 7.42499H210.044V2.89108L220.796 19.9812V31.8685C214.394 31.2396 208.012 30.6989 201.672 30.2362V7.42499ZM111.239 14.3454L120.504 28.0641C117.375 28.1113 114.307 28.1729 111.25 28.2467L111.239 14.3454ZM23.7725 16.9155C23.7725 14.0868 24.6651 11.7075 26.4606 9.77453C28.2561 7.84359 30.5544 6.87709 33.3554 6.87709C36.1564 6.87709 38.4751 7.85077 40.2912 9.79813C42.1174 11.7445 43.0306 14.1176 43.0306 16.9155C43.0306 19.7463 42.1277 22.1266 40.3322 24.0576C38.5367 25.9895 36.2488 26.955 33.4478 26.955C30.6468 26.955 28.3382 25.9813 26.5119 24.035C24.6856 22.0886 23.7725 19.7155 23.7725 16.9155ZM61.0986 7.28749H65.2949C66.9468 7.28749 68.2395 7.7061 69.1732 8.5423C70.0966 9.38054 70.5583 10.5728 70.5583 12.1241C70.5583 13.5851 70.1069 14.7712 69.1937 15.6833C68.2806 16.5965 67.0186 17.053 65.4181 17.053H61.0986V7.28749ZM228.153 32.6288V19.853L240.126 0.944722H232.216L224.521 13.7667L216.969 0.944722H186.066V7.42499H194.315V29.7324C190.468 29.4872 186.641 29.2697 182.844 29.0788V0.944722H175.508V28.7423C174.298 28.692 173.087 28.6438 171.887 28.5987C172.071 28.4089 172.256 28.2139 172.451 28.0046L168.019 23.2142C166.634 24.4916 165.32 25.4345 164.079 26.0429C162.848 26.6523 161.391 26.955 159.698 26.955C157.04 26.955 154.845 25.9813 153.111 24.035C151.377 22.0886 150.515 19.7155 150.515 16.9155C150.515 14.0868 151.377 11.7075 153.111 9.77453C154.845 7.84359 157.04 6.87709 159.698 6.87709C161.391 6.87709 162.827 7.15924 164.007 7.72149C165.207 8.28374 166.48 9.18973 167.844 10.4363L172 5.59972C170.317 3.92631 168.532 2.64176 166.664 1.74298C164.787 0.847279 162.478 0.396851 159.739 0.396851C154.937 0.396851 150.987 1.99434 147.888 5.18829C144.78 8.38327 143.23 12.2924 143.23 16.9155C143.23 21.2555 144.585 24.9461 147.273 28.0026C141.096 27.9328 135.022 27.9235 129.061 27.9666V0.944722H121.684L121.705 18.7962L109.649 0.944722H103.903V28.4499C102.867 28.4827 101.831 28.5176 100.795 28.5525V26.6359H87.4772V19.9279H99.543V13.6764H87.4772V7.19619H100.59V0.944722H80.131V29.4533C73.4723 29.8073 67.111 30.2054 61.0986 30.6301V23.3045H65.2026C68.6603 23.3045 71.5126 22.3236 73.7698 20.3609C76.027 18.3992 77.1453 15.6382 77.1453 12.079C77.1453 8.73316 76.1296 6.0409 74.1084 4.00222C72.0769 1.96458 69.3271 0.944722 65.8387 0.944722H53.7729V31.1719C48.7865 31.5577 44.0874 31.9547 39.6859 32.3538C41.861 31.5546 43.8001 30.3183 45.5136 28.6202C48.7557 25.4119 50.3769 21.51 50.3769 16.9155C50.3769 12.2924 48.766 8.38327 45.5649 5.18829C42.3535 1.99434 38.311 0.396851 33.4478 0.396851C28.5743 0.396851 24.5318 2.00254 21.2896 5.21189C18.0474 8.42123 16.4263 12.3231 16.4263 16.9155C16.4263 21.5408 18.0269 25.4499 21.2383 28.6438C23.8033 31.1986 26.912 32.714 30.5441 33.2259C11.3373 35.1436 0 36.8498 0 36.8498C133.34 24.5562 260 36.8498 260 36.8498C249.401 35.1743 238.762 33.78 228.153 32.6288Z" fill="#393939"/>
<path d="M85.5703 60.0729V49.6257H93.4509V51.6702H87.8615V53.7905H92.7857V55.8351H87.8615V58.0283H93.5248V60.0729H85.5703Z" fill="#393939"/>
<path d="M100.038 60.2218C98.3266 60.2218 96.8476 59.6646 95.6011 58.5493L96.9685 56.9233C97.9825 57.7688 99.0243 58.1921 100.075 58.1921C100.55 58.1921 100.922 58.1028 101.182 57.9232C101.461 57.7437 101.592 57.4963 101.592 57.1781C101.592 56.8777 101.452 56.6377 101.173 56.4526C100.894 56.2702 100.336 56.0675 99.4895 55.8479C98.8848 55.6991 98.4104 55.5521 98.0383 55.4079C97.6755 55.2637 97.322 55.0731 96.9871 54.8331C96.6523 54.5949 96.4104 54.2935 96.2522 53.9307C96.1034 53.568 96.0197 53.1326 96.0197 52.6247C96.0197 51.6805 96.3638 50.9178 97.0429 50.341C97.722 49.7634 98.6057 49.475 99.6848 49.475C101.164 49.475 102.457 49.9187 103.564 50.8043L102.364 52.5345C101.378 51.8489 100.475 51.5057 99.6569 51.5057C99.2197 51.5057 98.8941 51.5922 98.6523 51.7661C98.429 51.941 98.3081 52.167 98.3081 52.4461C98.3081 52.7838 98.4476 53.0368 98.7453 53.2061C99.0244 53.3763 99.6383 53.58 100.559 53.8182C101.694 54.1168 102.531 54.5 103.071 54.9689C103.601 55.4349 103.871 56.1084 103.871 56.9819C103.871 57.9986 103.527 58.7921 102.82 59.3632C102.122 59.9362 101.192 60.2218 100.038 60.2218Z" fill="#393939"/>
<path d="M109.054 60.0714V51.7435H105.869V49.6246H114.534V51.7435H111.349V60.0714H109.054Z" fill="#393939"/>
<path d="M120.253 55.6992H123.03L121.642 52.312L120.253 55.6992ZM116.135 60.0733L120.622 49.5502H122.728L127.215 60.0733H124.806L123.852 57.7299H119.432L118.478 60.0733H116.135Z" fill="#393939"/>
<path d="M133.935 60.2373C132.508 60.2373 131.395 59.8424 130.596 59.0508C129.806 58.2601 129.406 57.1079 129.406 55.595V49.6255H131.709V55.536C131.709 56.3714 131.899 57.0118 132.299 57.4533C132.689 57.8967 133.241 58.1183 133.964 58.1183C134.677 58.1183 135.229 57.9043 135.619 57.4761C136.019 57.0498 136.209 56.4257 136.209 55.6103V49.6255H138.512V55.5218C138.512 57.0736 138.103 58.2477 137.294 59.0441C136.485 59.8396 135.362 60.2373 133.935 60.2373Z" fill="#393939"/>
<path d="M143.913 54.6971H146.243C146.8 54.6971 147.231 54.5609 147.538 54.2866C147.854 54.0133 147.998 53.647 147.998 53.1896C147.998 52.7015 147.845 52.3314 147.528 52.0782C147.202 51.8241 146.761 51.6976 146.195 51.6976H143.913V54.6971ZM141.612 60.0699V49.6225H146.397C147.711 49.6225 148.727 49.9763 149.437 50.6811C150.031 51.2795 150.328 52.0859 150.328 53.0995C150.328 54.7019 149.581 55.7816 148.094 56.3397L150.645 60.0699H147.96L145.687 56.7271H143.913V60.0699H141.612Z" fill="#393939"/>
<path d="M156.365 55.698H159.139L157.757 52.3107L156.365 55.698ZM152.247 60.0714L156.732 49.5489H158.849L163.325 60.0714H160.918L159.961 57.729H155.543L154.586 60.0714H152.247Z" fill="#393939"/>
<path d="M165.688 60.0716V49.6243H167.801L172.699 56.0555V49.6243H174.968V60.0716H173.011L167.947 53.4291V60.0716H165.688Z" fill="#393939"/>
<path d="M180.654 60.0703V51.7433H177.476V49.623H186.136V51.7433H182.949V60.0703H180.654Z" fill="#393939"/>
<path d="M76.3433 54.6969H78.6737C79.2334 54.6969 79.6646 54.5611 79.9765 54.2868C80.2793 54.0134 80.4353 53.6473 80.4353 53.1895C80.4353 52.7014 80.2793 52.3317 79.9582 52.0785C79.6371 51.8243 79.1967 51.6977 78.6278 51.6977H76.3433V54.6969ZM74.0405 60.0705V49.6233H78.8297C80.1417 49.6233 81.16 49.9766 81.8665 50.6821C82.4628 51.2794 82.7564 52.0858 82.7564 53.0996C82.7564 54.7024 82.0133 55.7814 80.527 56.3392L83.0775 60.0705H80.3894L78.1141 56.7273H76.3433V60.0705H74.0405Z" fill="#393939"/>
</svg>
