<svg width="20" height="20" viewBox="0 0 20 20" fill="none" xmlns="http://www.w3.org/2000/svg">
<path d="M15.8334 5.41664H14.7667L14.5001 4.58331C14.3272 4.09434 14.0065 3.67123 13.5825 3.37261C13.1585 3.07399 12.652 2.91465 12.1334 2.91664H7.86675C7.34304 2.91762 6.83286 3.08305 6.40822 3.38957C5.98358 3.69608 5.66592 4.12822 5.50008 4.62498L5.23341 5.45831H4.16675C3.50371 5.45831 2.86782 5.7217 2.39898 6.19054C1.93014 6.65939 1.66675 7.29527 1.66675 7.95831V14.625C1.66675 15.288 1.93014 15.9239 2.39898 16.3927C2.86782 16.8616 3.50371 17.125 4.16675 17.125H15.8334C16.4965 17.125 17.1323 16.8616 17.6012 16.3927C18.07 15.9239 18.3334 15.288 18.3334 14.625V7.95831C18.3389 7.62652 18.2784 7.29694 18.1552 6.9888C18.032 6.68066 17.8488 6.40013 17.6161 6.16355C17.3834 5.92697 17.1059 5.73909 16.7998 5.61085C16.4938 5.48262 16.1653 5.4166 15.8334 5.41664ZM16.6667 14.5833C16.6667 14.8043 16.579 15.0163 16.4227 15.1726C16.2664 15.3288 16.0544 15.4166 15.8334 15.4166H4.16675C3.94573 15.4166 3.73377 15.3288 3.57749 15.1726C3.42121 15.0163 3.33341 14.8043 3.33341 14.5833V7.91665C3.33341 7.69563 3.42121 7.48367 3.57749 7.32739C3.73377 7.17111 3.94573 7.08331 4.16675 7.08331H5.83341C6.01514 7.0928 6.19497 7.04254 6.34544 6.94022C6.49592 6.83789 6.60877 6.68913 6.66675 6.51664L7.11675 5.14998C7.17265 4.98446 7.27916 4.8407 7.42122 4.73901C7.56328 4.63733 7.73371 4.58286 7.90841 4.58331H12.1751C12.3498 4.58286 12.5202 4.63733 12.6623 4.73901C12.8043 4.8407 12.9108 4.98446 12.9667 5.14998L13.4167 6.51664C13.4702 6.6756 13.5704 6.81472 13.7042 6.91582C13.838 7.01692 13.9992 7.07529 14.1667 7.08331H15.8334C16.0544 7.08331 16.2664 7.17111 16.4227 7.32739C16.579 7.48367 16.6667 7.69563 16.6667 7.91665V14.5833ZM10.0001 7.08331C9.34081 7.08331 8.69634 7.27881 8.14818 7.64508C7.60002 8.01135 7.17277 8.53195 6.92048 9.14103C6.66819 9.75012 6.60218 10.4203 6.7308 11.0669C6.85941 11.7135 7.17688 12.3075 7.64306 12.7737C8.10923 13.2398 8.70318 13.5573 9.34978 13.6859C9.99638 13.8145 10.6666 13.7485 11.2757 13.4962C11.8848 13.244 12.4054 12.8167 12.7716 12.2685C13.1379 11.7204 13.3334 11.0759 13.3334 10.4166C13.3334 9.53259 12.9822 8.68474 12.3571 8.05962C11.732 7.4345 10.8841 7.08331 10.0001 7.08331ZM10.0001 12.0833C9.67045 12.0833 9.34821 11.9856 9.07413 11.8024C8.80005 11.6193 8.58643 11.359 8.46028 11.0545C8.33414 10.7499 8.30113 10.4148 8.36544 10.0915C8.42975 9.76819 8.58848 9.47122 8.82157 9.23813C9.05466 9.00505 9.35163 8.84631 9.67493 8.782C9.99823 8.71769 10.3333 8.7507 10.6379 8.87685C10.9424 9.00299 11.2027 9.21661 11.3859 9.49069C11.569 9.76478 11.6667 10.087 11.6667 10.4166C11.6667 10.8587 11.4912 11.2826 11.1786 11.5952C10.866 11.9077 10.4421 12.0833 10.0001 12.0833Z" fill="#6A477B"/>
</svg>
